# Blender v2.90.1 OBJ File: 'allshapes.blend'
# www.blender.org
mtllib 10.mtl
o Parallelogram.015
v -136.041199 -7.057108 -111.134399
v -116.081474 -7.042967 -91.168549
v -116.081474 0.928747 -91.168549
v -136.055359 0.928747 -111.142426
v -136.048279 0.928747 -91.170441
v -136.053467 -7.050028 -91.182678
vn 0.0004 -1.0000 0.0004
vn 0.0000 1.0000 0.0000
vn -0.0001 0.0000 1.0000
vn -0.0007 -0.0015 1.0000
vn -1.0000 0.0007 0.0004
vn -1.0000 -0.0018 -0.0006
vn 0.7071 0.0005 -0.7071
vn 0.7072 0.0000 -0.7070
usemtl None
s off
f 1//1 2//1 6//1
f 5//2 3//2 4//2
f 2//3 3//3 5//3
f 2//4 5//4 6//4
f 6//5 5//5 4//5
f 6//6 4//6 1//6
f 1//7 4//7 3//7
f 1//8 3//8 2//8
