# Blender v2.90.1 OBJ File: 'allshapes.blend'
# www.blender.org
mtllib 11.mtl
o Parallelogram.016
v -132.183533 -6.727430 -150.729248
v -132.183533 -6.727430 -130.757538
v -132.183533 -0.741571 -130.743393
v -132.183533 -0.741571 -150.743393
v -138.167511 -0.734510 -150.729248
v -138.167511 -6.720350 -150.729248
v -138.162323 -0.741571 -130.745285
v -138.162323 -6.713289 -130.745285
vn -0.0012 -1.0000 0.0000
vn -0.0024 -1.0000 0.0004
vn -1.0000 0.0000 0.0003
vn -0.0003 -0.0024 1.0000
vn 0.0021 0.0000 1.0000
vn 0.0012 1.0000 0.0004
vn 0.0000 1.0000 0.0000
vn 1.0000 0.0000 0.0000
vn -0.0024 0.0000 -1.0000
vn 0.0000 -0.0024 -1.0000
usemtl None
s off
f 6//1 1//1 2//1
f 6//2 2//2 8//2
f 8//3 7//3 5//3
f 8//3 5//3 6//3
f 2//4 3//4 7//4
f 2//5 7//5 8//5
f 4//6 5//6 7//6
f 4//7 7//7 3//7
f 1//8 4//8 3//8
f 1//8 3//8 2//8
f 6//9 5//9 4//9
f 6//10 4//10 1//10
