# Blender v2.90.1 OBJ File: 'allshapes.blend'
# www.blender.org
mtllib 15.mtl
o Parallelogram.004
v -162.839401 9.770683 -44.080849
v -168.999725 9.784824 -52.576820
v -159.015930 9.770683 -55.810249
v -169.009720 9.770683 -63.071159
v -172.101074 9.770681 -56.828438
v -178.983521 9.770683 -55.810249
v -174.001617 9.770683 -50.941093
v -175.176239 9.770681 -44.092613
v -168.999725 1.784824 -47.335503
v -168.999725 1.784824 -52.576820
v -162.838181 1.784824 -44.096184
v -169.009720 9.770683 -47.314262
v -164.014938 1.784824 -50.957161
v -159.030136 1.784824 -55.816139
v -165.918961 1.784824 -56.817146
v -168.999725 1.784824 -63.059471
v -172.080490 1.784824 -56.817146
v -178.969315 1.784824 -55.816139
v -173.984512 1.784824 -50.957161
v -175.161270 1.784824 -44.096184
v -163.999954 9.777391 -50.950356
v -165.907852 9.777390 -56.829292
vn -0.4653 -0.0029 0.8851
vn -0.4642 -0.0018 0.8858
vn 0.0014 1.0000 0.0027
vn 0.9856 0.0005 -0.1690
vn 0.9860 -0.0017 -0.1666
vn 0.6980 -0.0019 0.7161
vn 0.6981 -0.0018 0.7160
vn 0.1438 0.0005 -0.9896
vn 0.1463 -0.0017 -0.9892
vn 0.8967 -0.0019 -0.4426
vn 0.8955 0.0005 -0.4450
vn -0.8967 -0.0018 -0.4426
vn -0.8961 -0.0029 -0.4438
vn -0.1438 -0.0018 -0.9896
vn -0.1463 0.0005 -0.9892
vn -0.6980 -0.0018 0.7161
vn -0.6990 -0.0029 0.7151
vn -0.9856 -0.0018 -0.1690
vn 0.0000 -1.0000 0.0000
vn 0.4631 -0.0018 0.8863
vn 0.4653 0.0005 0.8851
vn 0.0012 1.0000 0.0008
vn 0.0015 1.0000 0.0001
vn 0.0011 1.0000 -0.0009
vn 0.0006 1.0000 -0.0013
vn -0.0027 1.0000 -0.0013
vn -0.0004 1.0000 -0.0030
vn -0.0021 1.0000 0.0022
vn -0.0030 1.0000 -0.0005
vn -0.0014 1.0000 0.0027
usemtl None
s off
f 12//1 9//1 11//1
f 12//2 11//2 1//2
f 12//3 2//3 8//3
f 1//4 11//4 13//4
f 1//5 13//5 21//5
f 21//6 13//6 14//6
f 21//7 14//7 3//7
f 3//8 14//8 15//8
f 3//9 15//9 22//9
f 22//10 15//10 16//10
f 22//11 16//11 4//11
f 4//12 16//12 17//12
f 4//13 17//13 5//13
f 5//14 17//14 18//14
f 5//15 18//15 6//15
f 6//16 18//16 19//16
f 6//17 19//17 7//17
f 7//18 19//18 20//18
f 7//18 20//18 8//18
f 9//19 10//19 11//19
f 9//20 12//20 8//20
f 9//21 8//21 20//21
f 11//19 10//19 13//19
f 13//19 10//19 14//19
f 14//19 10//19 15//19
f 15//19 10//19 16//19
f 16//19 10//19 17//19
f 17//19 10//19 18//19
f 18//19 10//19 19//19
f 19//19 10//19 20//19
f 2//22 1//22 21//22
f 10//19 9//19 20//19
f 2//23 21//23 3//23
f 2//24 3//24 22//24
f 2//25 22//25 4//25
f 2//26 4//26 5//26
f 2//27 5//27 6//27
f 2//28 6//28 7//28
f 2//29 7//29 8//29
f 2//30 12//30 1//30
