# Blender v2.90.1 OBJ File: 'allshapes.blend'
# www.blender.org
mtllib 18.mtl
o Parallelogram.002
v -92.554184 13.167227 -51.861206
v -92.554184 5.167225 -57.703766
v -106.696320 13.167227 -61.857895
v -102.565010 13.167227 -47.729904
v -96.714790 13.167227 -61.890518
v -92.535706 13.167227 -57.711426
v -102.548332 5.181368 -47.744049
v -99.625252 5.181368 -50.658829
v -103.767387 5.181368 -54.800964
v -106.682175 5.181368 -51.877884
v -95.483116 5.181368 -54.800964
v -99.625252 5.181368 -58.943100
v -99.625252 13.181368 -50.658829
v -96.702171 5.181368 -47.744049
v -92.568329 5.181368 -51.877884
v -109.615250 13.167227 -54.790970
v -95.483116 13.181368 -54.800964
v -99.625252 13.181368 -58.943100
v -103.767387 13.181368 -54.800964
v -106.703972 13.167227 -57.722244
v -92.568329 13.167227 -47.729904
v -92.568329 5.181368 -61.857895
v -92.568329 5.181368 -47.744049
v -106.682175 5.181368 -57.724045
v -102.565010 13.167227 -61.872040
v -99.635254 13.167227 -64.790970
v -99.622047 5.181368 -64.784164
v -102.548332 5.181368 -61.857895
v -106.682175 5.181368 -61.857895
v -96.722450 5.167225 -61.872040
v -89.635254 13.167227 -54.790970
v -89.642052 5.181368 -54.804169
v -106.689240 5.183256 -47.744034
v -99.630249 5.183256 -44.815979
v -109.614815 5.185091 -54.800964
v -99.628922 13.167227 -44.807312
v -96.698647 13.167227 -47.725983
v -92.556068 13.167227 -61.864960
v -106.697441 13.167227 -51.867615
v -106.696320 13.167227 -47.744049
vn -1.0000 -0.0000 0.0000
vn -1.0000 0.0018 -0.0034
vn 1.0000 -0.0015 -0.0034
vn 1.0000 -0.0023 -0.0049
vn 1.0000 0.0018 0.0000
vn 1.0000 0.0027 0.0019
vn -0.0000 -0.0000 -1.0000
vn 0.0034 0.0018 -1.0000
vn -0.7086 0.0023 0.7056
vn -0.7047 -0.0006 0.7095
vn -0.7056 -0.0006 0.7086
vn -0.7095 0.0023 0.7047
vn 0.7083 0.0027 -0.7059
vn 0.7055 0.0007 -0.7087
vn 0.0000 1.0000 0.0000
vn 0.0000 -1.0000 -0.0048
vn 0.0000 -1.0000 0.0000
vn 0.0024 1.0000 -0.0024
vn 0.7060 0.0009 -0.7083
vn 0.7078 0.0023 -0.7064
vn -0.0024 -1.0000 -0.0024
vn -0.0024 -1.0000 0.0024
vn 0.0024 -1.0000 0.0024
vn 0.0024 -1.0000 -0.0024
vn 0.0048 -1.0000 -0.0000
vn 0.0000 -1.0000 0.0048
vn 0.0005 1.0000 -0.0005
vn 0.7060 0.0018 0.7083
vn 0.7095 -0.0008 0.7047
vn 0.0000 0.0023 -1.0000
vn -0.0009 0.0018 -1.0000
vn 0.0034 -1.0000 -0.0034
vn 0.0013 1.0000 0.0000
vn 0.0000 0.0018 1.0000
vn 0.0034 0.0000 1.0000
vn 0.7071 0.0018 0.7071
vn 0.7058 0.0027 0.7084
vn 0.0024 1.0000 0.0024
vn 0.0000 1.0000 -0.0006
vn 0.0034 -0.0023 -1.0000
vn 0.0061 -0.0009 -1.0000
vn -0.7071 0.0027 -0.7071
vn -0.7084 0.0018 -0.7058
vn -0.7071 0.0009 -0.7071
vn -0.7057 0.0019 -0.7085
vn -0.0000 1.0000 -0.0049
vn 1.0000 0.0019 0.0017
vn 1.0000 0.0009 -0.0003
usemtl None
s off
f 15//1 23//1 21//1
f 15//2 21//2 1//2
f 2//3 22//3 38//3
f 2//4 38//4 6//4
f 24//5 29//5 3//5
f 24//6 3//6 20//6
f 7//7 33//7 40//7
f 7//8 40//8 4//8
f 27//9 30//9 5//9
f 27//10 5//10 26//10
f 2//11 32//11 31//11
f 2//12 31//12 6//12
f 34//13 7//13 4//13
f 34//14 4//14 36//14
f 7//15 8//15 9//15
f 7//15 9//15 10//15
f 9//15 8//15 11//15
f 9//15 11//15 12//15
f 4//16 13//16 37//16
f 4//17 37//17 36//17
f 30//18 12//18 11//18
f 30//18 11//18 2//18
f 8//15 14//15 15//15
f 8//15 15//15 11//15
f 10//19 35//19 16//19
f 10//20 16//20 39//20
f 13//21 17//21 1//21
f 13//21 1//21 37//21
f 5//22 6//22 17//22
f 5//22 17//22 18//22
f 20//23 25//23 18//23
f 20//23 18//23 19//23
f 4//24 39//24 19//24
f 4//24 19//24 13//24
f 20//25 19//25 39//25
f 20//17 39//17 16//17
f 5//15 6//15 38//15
f 37//17 1//17 21//17
f 5//26 18//26 25//26
f 5//17 25//17 26//17
f 19//17 18//17 17//17
f 19//17 17//17 13//17
f 39//17 4//17 40//17
f 17//22 6//22 31//22
f 17//21 31//21 1//21
f 25//17 20//17 3//17
f 10//27 33//27 7//27
f 35//28 24//28 20//28
f 35//29 20//29 16//29
f 23//30 14//30 37//30
f 23//31 37//31 21//31
f 30//32 22//32 2//32
f 14//15 23//15 15//15
f 24//33 35//33 10//33
f 24//15 10//15 9//15
f 29//34 28//34 25//34
f 29//35 25//35 3//35
f 28//36 27//36 26//36
f 28//37 26//37 25//37
f 30//38 27//38 28//38
f 30//18 28//18 12//18
f 28//15 29//15 24//15
f 7//39 34//39 14//39
f 7//15 14//15 8//15
f 24//15 9//15 12//15
f 24//15 12//15 28//15
f 22//40 30//40 5//40
f 22//41 5//41 38//41
f 32//42 15//42 1//42
f 32//43 1//43 31//43
f 14//44 34//44 36//44
f 14//45 36//45 37//45
f 11//15 15//15 32//15
f 11//46 32//46 2//46
f 33//47 10//47 39//47
f 33//48 39//48 40//48
