# Blender v2.90.1 OBJ File: 'allshapes.blend'
# www.blender.org
mtllib 3.mtl
o Parallelogram.011
v -194.254761 31.711050 -132.630264
v -194.254761 31.711050 -152.630264
v -194.254761 11.732270 -152.628372
v -194.254761 11.732270 -132.632156
v -214.233536 31.711050 -152.628372
v -214.233536 11.727079 -152.616119
v -214.238724 31.711050 -132.637344
v -214.236893 11.732570 -132.637650
vn 0.0003 -1.0000 0.0000
vn -0.0000 -1.0000 0.0003
vn -1.0000 -0.0001 -0.0003
vn -1.0000 -0.0000 -0.0002
vn -0.0004 -0.0001 1.0000
vn -0.0003 -0.0000 1.0000
vn 0.0000 1.0000 -0.0000
vn 1.0000 0.0000 0.0000
vn -0.0001 -0.0006 -1.0000
vn -0.0006 -0.0001 -1.0000
usemtl None
s off
f 6//1 3//1 4//1
f 6//2 4//2 8//2
f 8//3 7//3 5//3
f 8//4 5//4 6//4
f 4//5 1//5 7//5
f 4//6 7//6 8//6
f 2//7 5//7 7//7
f 2//7 7//7 1//7
f 3//8 2//8 1//8
f 3//8 1//8 4//8
f 6//9 5//9 2//9
f 6//10 2//10 3//10
