# Blender v2.90.1 OBJ File: 'allshapes.blend'
# www.blender.org
mtllib 4.mtl
o Parallelogram.006
v -201.062851 17.456001 -73.087265
v -211.134338 9.484285 -90.531616
v -211.134338 17.456001 -90.531616
v -201.065903 9.472240 -73.094467
v -221.194275 17.456001 -73.089920
v -221.184402 9.477346 -73.089371
vn -0.0003 -1.0000 -0.0005
vn 0.0000 1.0000 0.0000
vn 0.8660 0.0000 -0.5000
vn 0.8660 0.0001 -0.5000
vn -0.0001 -0.0009 1.0000
vn 0.0003 0.0001 1.0000
vn -0.8665 -0.0011 -0.4992
vn -0.8662 0.0000 -0.4996
usemtl None
s off
f 2//1 4//1 6//1
f 5//2 1//2 3//2
f 4//3 2//3 3//3
f 4//4 3//4 1//4
f 4//5 1//5 5//5
f 4//6 5//6 6//6
f 2//7 6//7 5//7
f 2//8 5//8 3//8
