# Blender v2.90.1 OBJ File: 'allshapes.blend'
# www.blender.org
mtllib 5.mtl
o Parallelogram.009
v -174.642365 -3.575047 -129.817215
v -174.642365 4.410810 -109.831375
v -194.614075 -3.560904 -109.831375
v -174.642365 4.424953 -129.817215
v -174.642365 -3.567966 -109.833267
v -194.626328 4.417873 -129.817215
v -194.621140 -3.573156 -129.817215
v -194.621140 4.410810 -109.833267
vn -0.0001 -1.0000 0.0004
vn -0.0004 -1.0000 0.0006
vn -1.0000 -0.0009 0.0003
vn -1.0000 -0.0007 0.0004
vn -0.0001 -0.0002 1.0000
vn 0.0001 0.0002 1.0000
vn -0.0004 1.0000 0.0004
vn -0.0000 1.0000 0.0007
vn 1.0000 0.0000 0.0000
vn -0.0000 0.0000 -1.0000
usemtl None
s off
f 7//1 1//1 5//1
f 7//2 5//2 3//2
f 3//3 8//3 6//3
f 3//4 6//4 7//4
f 5//5 2//5 8//5
f 5//6 8//6 3//6
f 4//7 6//7 8//7
f 4//8 8//8 2//8
f 1//9 4//9 2//9
f 1//9 2//9 5//9
f 7//10 6//10 4//10
f 7//10 4//10 1//10
