# Blender v2.90.1 OBJ File: 'allshapes.blend'
# www.blender.org
mtllib 7.mtl
o Parallelogram.012
v -160.039032 18.755230 -134.756485
v -170.094803 38.922226 -144.809036
v -160.036575 18.740808 -154.881699
v -180.153809 18.746794 -154.871140
v -180.153809 18.746794 -134.769455
vn 0.8950 0.4461 -0.0002
vn -0.0003 -1.0000 0.0007
vn 0.0004 -1.0000 0.0000
vn -0.8949 0.4462 0.0000
vn -0.0008 0.4458 0.8951
vn -0.0003 0.4464 -0.8948
usemtl None
s off
f 3//1 2//1 1//1
f 4//2 3//2 1//2
f 4//3 1//3 5//3
f 5//4 2//4 4//4
f 1//5 2//5 5//5
f 4//6 2//6 3//6
