# Blender v2.90.1 OBJ File: 'allshapes.blend'
# www.blender.org
mtllib 8.mtl
o Parallelogram.014
v -158.220245 -7.235384 -116.671494
v -148.239258 0.750475 -96.703110
v -158.216797 0.750475 -116.690018
v -148.240479 -7.228182 -96.705200
v -168.213074 0.750473 -96.711670
v -168.213074 -7.221243 -96.711670
vn -0.8943 0.0000 -0.4475
vn -0.8942 -0.0007 -0.4477
vn -0.0003 -1.0000 0.0005
vn -0.0004 -0.0003 1.0000
vn -0.0003 0.0000 1.0000
vn -0.0000 1.0000 0.0000
vn 0.8947 -0.0014 -0.4466
vn 0.8945 -0.0000 -0.4471
usemtl None
s off
f 6//1 5//1 3//1
f 6//2 3//2 1//2
f 1//3 4//3 6//3
f 4//4 2//4 5//4
f 4//5 5//5 6//5
f 3//6 5//6 2//6
f 1//7 3//7 2//7
f 1//8 2//8 4//8
